Coordinates
version=1
nRows=13
nColumns=34
inDegrees=yes

Units are S.I. units (second, meters, Newtons, ...)
If the header above contains a line with 'inDegrees', this indicates whether rotational values are in degrees (yes) or radians (no).

endheader
time	pelvis_tilt	pelvis_list	pelvis_rotation	pelvis_tx	pelvis_ty	pelvis_tz	hip_flexion_r	hip_adduction_r	hip_rotation_r	knee_angle_r	ankle_angle_r	subtalar_angle_r	mtp_angle_r	hip_flexion_l	hip_adduction_l	hip_rotation_l	knee_angle_l	ankle_angle_l	subtalar_angle_l	mtp_angle_l	lumbar_extension	lumbar_bending	lumbar_rotation	arm_flex_r	arm_add_r	arm_rot_r	elbow_flex_r	pro_sup_r	arm_flex_l	arm_add_l	arm_rot_l	elbow_flex_l	pro_sup_l
      2.18333330	      2.98451615	      1.88526266	      3.48707054	      0.05835066	      0.83466388	     -0.17826637	     43.45545866	     -3.97046632	      2.92617579	     12.80691326	     -1.59211826	    -10.31465319	      0.00000000	     26.44170114	      6.77585595	     -0.80965754	     53.28274208	     27.82334542	     -2.29305911	      0.00000000	    -28.34022286	     -1.04844452	     10.58318117	     67.38333154	      5.84490922	     50.78128988	    124.03403683	     96.75648446	     90.31896473	     12.99594136	     77.67622953	    120.86851470	     64.45229630
      2.20000000	      3.38076855	      1.19720958	      3.13884819	      0.06231019	      0.84288783	     -0.17881126	     43.51373328	     -3.10957347	      2.63363641	     15.32606966	     -1.18949246	    -11.18408129	      0.00000000	     24.79877041	      6.08486668	     -0.38273691	     51.33370743	     27.85806189	     -2.15958651	      0.00000000	    -27.53666616	     -0.09776572	     10.71095913	     67.23287071	      5.36730227	     50.18673782	    123.91584114	     96.67279361	     90.01278784	     12.93199498	     77.66478895	    120.96370540	     64.42025963
      2.21666670	      4.15326601	      0.44609434	      2.58606743	      0.06302665	      0.85500696	     -0.17802177	     43.10839242	     -1.84941072	      3.33572049	     17.92461351	     -1.07690721	    -13.43747714	      0.00000000	     22.60962115	      5.08894694	     -0.15168558	     49.17316711	     27.95822416	     -2.16964049	      0.00000000	    -27.36402328	      0.89993073	     11.01463287	     66.56709902	      5.54943180	     48.68714134	    123.37481636	     96.28803405	     89.14320793	     12.20013907	     76.45577093	    120.52662834	     64.21249760
      2.23333330	      4.74618210	     -0.31785848	      2.15158161	      0.06616524	      0.86434485	     -0.17766719	     43.20726740	     -0.79632684	      3.01101687	     21.35269101	     -1.51128011	    -15.80861458	      0.00000000	     20.69315277	      4.23554689	      0.00301164	     47.57679070	     26.37318938	     -2.80806924	      0.00000000	    -26.86258107	      2.03399808	     10.81602514	     66.12647966	      6.23806439	     49.28384163	    123.39607477	     96.01300318	     88.28594529	     11.28181959	     75.56301518	    120.22738764	     64.04868718
      2.25000000	      5.37641317	     -1.11387516	      2.07582500	      0.06810695	      0.87548668	     -0.17710120	     43.36260653	      0.22199806	      2.65530778	     25.04651257	     -2.20495078	    -18.01870617	      0.00000000	     18.54230687	      3.55606628	      0.40114732	     45.64036524	     24.08595784	     -3.55503505	      0.00000000	    -26.38042192	      3.30359201	     10.49684126	     65.66045009	      6.71472947	     50.01618674	    122.85620996	     95.76763455	     87.38912359	     10.53275693	     75.19797907	    120.22425488	     63.90767612
      2.26666670	      5.97261129	     -1.89965634	      1.89919827	      0.07014719	      0.88421927	     -0.17710496	     43.37818039	      1.20116703	      2.21038563	     28.37197312	     -2.59911260	    -18.98641624	      0.00000000	     16.87277819	      2.79012182	      0.83332806	     44.08888775	     21.83306844	     -3.99023081	      0.00000000	    -25.97376914	      4.30679996	      9.99388247	     65.24052694	      7.15497885	     49.88557653	    122.42902379	     95.52441991	     86.65431622	      9.60282517	     74.57979552	    119.75902887	     63.74036497
      2.28333330	      6.17375083	     -2.55209336	      1.72439559	      0.07177179	      0.89232137	     -0.17566430	     43.81752493	      2.20052676	      1.95028536	     31.29119340	     -2.54013839	    -18.96616314	      0.00000000	     16.14357325	      1.91857553	      0.96610417	     42.80497090	     20.07886801	     -4.19803396	      0.00000000	    -25.41481001	      5.20469243	      9.88033460	     64.76885783	      7.40530952	     49.92938048	    122.01123584	     95.33710913	     86.03358603	      9.49098614	     74.28566151	    120.02349244	     63.62288996
      2.30000000	      6.24448497	     -3.13643640	      1.92152078	      0.07399394	      0.90205734	     -0.17515827	     44.04307828	      2.82759268	      1.07226618	     33.86145459	     -2.69189190	    -19.01208004	      0.00000000	     15.07043848	      1.19307436	      1.26027954	     40.93736835	     17.78204233	     -3.58092713	      0.00000000	    -24.76890286	      6.25125029	      9.90902222	     64.32439843	      7.55485243	     49.83146259	    121.89595989	     95.22741143	     85.55092426	      9.59875054	     74.18120325	    120.25875008	     63.56238316
      2.31666670	      6.17327964	     -3.85250425	      1.82899977	      0.07374508	      0.90563435	     -0.17501493	     44.68163520	      3.51645951	     -0.27668631	     36.19249911	     -3.20175683	    -19.00440656	      0.00000000	     13.79223658	      0.39354037	      1.13861093	     39.18661094	     14.01272244	     -2.41960574	      0.00000000	    -24.14328984	      7.40728272	     10.26071814	     64.61221894	      7.78717075	     49.78406064	    121.57750940	     95.09334345	     85.53692655	      9.55302483	     73.56176491	    120.43326717	     63.48749192
      2.33333330	      6.30693050	     -4.48660452	      1.82397573	      0.07538122	      0.91412103	     -0.17441795	     44.54961748	      4.04064850	     -1.48073268	     37.99524371	     -4.73906709	    -19.21825503	      0.00000000	     12.07609187	     -0.18754313	      1.48145400	     36.89311622	      9.23479492	     -2.17361434	      0.00000000	    -23.73969795	      8.79768496	     10.41419379	     64.71370039	      7.95143372	     49.69211702	    120.48211150	     94.62975004	     84.92879075	      9.07692738	     72.41730403	    120.93353527	     63.28875701
      2.35000000	      6.26410187	     -5.21478329	      1.64888164	      0.07823440	      0.91980442	     -0.17390660	     44.62269678	      4.73059760	     -2.49262387	     39.63752748	     -6.70383015	    -19.71548755	      0.00000000	     11.03723150	     -1.16174072	      1.29725481	     35.17594835	      5.84882622	     -1.21397276	      0.00000000	    -22.98230498	      9.77516887	     10.29984225	     64.09476983	      7.93517449	     49.49531644	    119.92054321	     94.23953591	     84.43076651	      8.96766128	     72.06274244	    120.81241817	     63.13784036
      2.36666670	      6.14110968	     -5.94023813	      1.57778734	      0.08296790	      0.92256916	     -0.17386120	     44.30645128	      5.28532171	     -3.40741961	     40.21688242	     -8.46035501	    -19.67399767	      0.00000000	      9.34440453	     -1.97397814	      1.72109257	     32.10642166	      4.11475576	     -0.43506614	      0.00000000	    -21.62076771	     10.57477787	      9.80123060	     62.94886559	      7.84367049	     49.42682051	    119.96770608	     93.99021246	     83.97013122	      8.87197783	     71.81452868	    120.20753758	     63.02761504
      2.38333330	      5.97559455	     -6.80575974	      1.45221304	      0.08313332	      0.92925093	     -0.17265036	     43.85934483	      6.29761757	     -4.03910477	     40.77101063	    -10.21590149	    -19.73818174	      0.00000000	      8.04573838	     -3.00772046	      1.85103955	     29.72502673	      2.59973716	     -0.17751309	      0.00000000	    -20.34098129	     11.47321590	      9.49628495	     61.80585338	      7.75143530	     49.00825852	    120.08992648	     93.69424703	     83.31956785	      8.77675434	     71.77658927	    119.58468192	     62.91657421
